<svg width="34" height="43" viewBox="0 0 34 43" fill="none" xmlns="http://www.w3.org/2000/svg">
<rect x="0.125" y="8.625" width="33.75" height="38.125" rx="10" fill="#695DE9"/>
<path d="M23.25 21.75L23.25 35.5" stroke="white" stroke-width="2.5" stroke-linecap="round" stroke-linejoin="round"/>
<path d="M17 26.75L17 35.5" stroke="#B7B0F4" stroke-width="2.5" stroke-linecap="round" stroke-linejoin="round"/>
<path d="M10.75 30.5L10.75 35.5" stroke="#B7B0F4" stroke-width="2.5" stroke-linecap="round" stroke-linejoin="round"/>
<circle cx="17" cy="9.25" r="8.75" fill="#2B2467"/>
<path d="M16.4056 4.82941C16.5927 4.25359 17.4073 4.25359 17.5944 4.82941L18.2629 6.88678C18.3466 7.14429 18.5865 7.31864 18.8573 7.31864H21.0206C21.626 7.31864 21.8777 8.0934 21.3879 8.44928L19.6378 9.72081C19.4188 9.87996 19.3271 10.1621 19.4108 10.4196L20.0792 12.477C20.2663 13.0528 19.6073 13.5316 19.1175 13.1757L17.3674 11.9042C17.1483 11.745 16.8517 11.745 16.6326 11.9042L14.8825 13.1757C14.3927 13.5316 13.7337 13.0528 13.9208 12.4769L14.5892 10.4196C14.6729 10.1621 14.5812 9.87996 14.3622 9.72081L12.6121 8.44928C12.1223 8.0934 12.374 7.31864 12.9794 7.31864H15.1427C15.4135 7.31864 15.6534 7.14429 15.7371 6.88678L16.4056 4.82941Z" fill="white"/>
</svg>
