<svg width="39" height="48" viewBox="0 0 39 48" fill="none" xmlns="http://www.w3.org/2000/svg">
<mask id="mask0_3_5" style="mask-type:alpha" maskUnits="userSpaceOnUse" x="0" y="4" width="30" height="49">
<path d="M0 10C0 6.68629 2.68629 4 6 4H24C27.3137 4 30 6.68629 30 10V53H0V10Z" fill="#695DE9"/>
</mask>
<g mask="url(#mask0_3_5)">
<path d="M0 10C0 6.68629 2.68629 4 6 4H24C27.3137 4 30 6.68629 30 10V53H0V10Z" fill="#695DE9"/>
<path d="M4 30C4 28.3431 5.34315 27 7 27H16C17.6569 27 19 28.3431 19 30V49C19 50.6569 17.6569 52 16 52H7C5.34315 52 4 50.6569 4 49V30Z" fill="#B7B0F4"/>
<path d="M22 30C22 28.3431 23.3431 27 25 27H34C35.6569 27 37 28.3431 37 30V49C37 50.6569 35.6569 52 34 52H25C23.3431 52 22 50.6569 22 49V30Z" fill="white"/>
<circle cx="30" cy="11" r="10" fill="#4F46B5"/>
</g>
<circle cx="30" cy="9" r="9" fill="#2B2467"/>
<path d="M29.5109 4.07677C29.6648 3.60295 30.3352 3.60295 30.4891 4.07677L31.3279 6.6581C31.3967 6.86999 31.5942 7.01346 31.817 7.01346H34.5311C35.0293 7.01346 35.2365 7.65098 34.8334 7.94381L32.6376 9.53916C32.4574 9.67012 32.3819 9.90225 32.4508 10.1142L33.2895 12.6955C33.4435 13.1693 32.9012 13.5633 32.4981 13.2705L30.3023 11.6751C30.1221 11.5442 29.878 11.5442 29.6977 11.6751L27.5019 13.2705C27.0989 13.5633 26.5566 13.1693 26.7105 12.6955L27.5492 10.1142C27.6181 9.90225 27.5427 9.67012 27.3624 9.53916L25.1666 7.94381C24.7635 7.65098 24.9707 7.01346 25.4689 7.01346H28.1831C28.4059 7.01346 28.6033 6.86999 28.6722 6.6581L29.5109 4.07677Z" fill="white"/>
<path d="M15 10L5 10" stroke="white" stroke-width="2.5" stroke-linecap="round" stroke-linejoin="round"/>
<path d="M12 15L5 15" stroke="#B7B0F4" stroke-width="2.5" stroke-linecap="round" stroke-linejoin="round"/>
</svg>
